<?xml version="1.0" encoding="utf-8"?>
<!-- Generator: Adobe Illustrator 27.5.0, SVG Export Plug-In . SVG Version: 6.00 Build 0)  -->
<svg version="1.1" xmlns="http://www.w3.org/2000/svg" xmlns:xlink="http://www.w3.org/1999/xlink" x="0px" y="0px"
	 viewBox="0 0 500 500" style="enable-background:new 0 0 500 500;" xml:space="preserve">
<g id="BACKGROUND">
	<rect x="-0.828" y="-1.096" style="fill:#FFFFFF;" width="500" height="500"/>
</g>
<g id="OBJECTS">
	<g>
		<g>
			<linearGradient id="SVGID_1_" gradientUnits="userSpaceOnUse" x1="148.4444" y1="258.0129" x2="244.6743" y2="258.0129">
				<stop  offset="0.4128" style="stop-color:#5292D3"/>
				<stop  offset="0.8654" style="stop-color:#27A8E0"/>
			</linearGradient>
			<path style="fill:url(#SVGID_1_);" d="M231.841,298.054c-0.349-2.559-0.841-6.757-1.417-11.761l2.801-2.787
				c0.789-0.793,0.926-1.96,0.305-2.612c-0.65-0.636-1.805-0.504-2.617,0.303l-0.967,0.958c-0.359-3.215-0.742-6.659-1.125-10.149
				l3.85-3.833c0.802-0.791,0.942-1.957,0.309-2.6c-0.632-0.63-1.79-0.506-2.594,0.29l-2.003,2.003
				c-0.374-3.478-0.752-6.917-1.119-10.172l4.018-4c0.811-0.788,0.937-1.965,0.294-2.598c-0.625-0.635-1.789-0.512-2.593,0.291
				l-2.171,2.149c-0.816-7.669-1.439-13.599-1.592-15.056l13.814-12.576c3.144-2.821,7.767-11.478,4.553-14.72
				c-3.24-3.244-11.929,1.339-14.772,4.453l-12.567,13.538c-0.166-0.014-6.639-0.718-15.384-1.694l2.154-2.141
				c0.803-0.798,0.932-1.967,0.296-2.604c-0.637-0.632-1.798-0.502-2.6,0.296l-4.005,3.997c-3.257-0.355-6.699-0.744-10.176-1.128
				l2.016-2.005c0.789-0.793,0.925-1.961,0.3-2.595c-0.649-0.635-1.807-0.511-2.611,0.291l-3.845,3.836
				c-3.478-0.398-6.903-0.782-10.133-1.148l0.967-0.983c0.796-0.798,0.923-1.955,0.297-2.584c-0.645-0.648-1.809-0.511-2.616,0.279
				l-2.787,2.784c-5.009-0.579-9.194-1.096-11.764-1.445c-9.532-1.298-22.362,3.102,41.525,26.626l-17.589,18.965l-0.001-0.001
				l-6.406,6.032l-14.437-2.214l-2.621,2.621l15.294,7.797l7.449,14.946l2.621-2.621l-1.927-14.15l5.973-6.332l19.139-17.44
				C228.673,320.391,233.113,307.576,231.841,298.054z"/>
			<path style="fill:#5292D3;" d="M277.396,122.977c8.38-5.376,17.466-6.55,23.08-6.534c5.612,0.045,11.204,0.942,16.59,3.008
				c2.667,1.011,5.38,2.387,7.718,3.936c2.378,1.565,4.585,3.378,6.589,5.389c3.999,4.023,7.195,8.88,9.12,14.237
				c0.966,2.672,1.625,5.453,1.956,8.259c0.188,1.445,0.229,2.699,0.291,4.014c0.025,1.299,0.036,2.593-0.021,3.875
				c-0.19,5.132-1.012,10.127-2.347,14.977c-1.345,4.845-3.236,9.548-5.784,13.986c-0.668,1.101-1.347,2.218-2.005,3.166
				c-0.664,0.989-1.317,1.983-2.017,2.945c-1.366,1.946-2.79,3.846-4.258,5.705c-11.758,14.917-26.328,26.919-41.697,37.065
				c-15.404,10.174-31.69,18.632-48.164,26.539c15.715-9.318,31.152-19.159,45.337-30.436c14.166-11.24,27.069-24.039,36.718-38.805
				c1.208-1.84,2.366-3.708,3.463-5.607c0.566-0.938,1.083-1.905,1.612-2.863c0.563-0.982,0.979-1.869,1.422-2.763
				c1.67-3.665,2.864-7.63,3.589-11.676c0.72-4.045,1.001-8.176,0.772-12.177c-0.046-1.002-0.152-1.988-0.26-2.968
				c-0.14-0.958-0.268-1.984-0.474-2.789c-0.383-1.702-0.958-3.346-1.708-4.904c-1.494-3.122-3.75-5.861-6.426-8.051
				c-1.342-1.093-2.79-2.055-4.323-2.85c-1.574-0.808-3.025-1.361-4.68-1.817c-6.106-1.293-7.213-1.451-12.588-0.502
				c0,0-5.689-4.408-9.699-6.782C283.697,125.294,277.396,122.977,277.396,122.977z"/>
			<g>
				
					<radialGradient id="SVGID_00000127736270006626164100000010394185078360938166_" cx="221.8918" cy="134.9275" r="113.4586" fx="231.5433" fy="132.2043" gradientUnits="userSpaceOnUse">
					<stop  offset="0" style="stop-color:#F1D31A"/>
					<stop  offset="0.4104" style="stop-color:#F1A321"/>
					<stop  offset="1" style="stop-color:#E46B26"/>
				</radialGradient>
				<path style="fill:url(#SVGID_00000127736270006626164100000010394185078360938166_);" d="M286.953,240.551
					c-14.794,9.77-33.322,19.183-46.927,25.805c6.174,0.932,12.559,1.119,19.059,0.422c32.369-3.471,57.648-27.18,64.644-57.188
					C313.855,220.594,301.751,230.783,286.953,240.551z"/>
				
					<radialGradient id="SVGID_00000047040329786794813210000016418181103589783190_" cx="221.8917" cy="134.9274" r="113.4588" fx="231.5432" fy="132.2041" gradientUnits="userSpaceOnUse">
					<stop  offset="0" style="stop-color:#F1D31A"/>
					<stop  offset="0.4104" style="stop-color:#F1A321"/>
					<stop  offset="1" style="stop-color:#E46B26"/>
				</radialGradient>
				<path style="fill:url(#SVGID_00000047040329786794813210000016418181103589783190_);" d="M232.74,239.158
					c0.181,1.719,1.712,16.934,2.062,20.415c12.73-7.559,29.15-17.724,44.334-29.796c15.516-12.31,27.227-24.674,35.806-37.803
					c1.199-1.825,2.321-3.642,3.341-5.407c0.463-0.768,0.853-1.484,1.245-2.198l0.324-0.592c0.428-0.745,0.748-1.398,1.087-2.091
					l0.214-0.436c0.79-1.741,1.582-4.15,2.15-7.236c-9.065-35.257-42.848-59.46-80.115-55.464
					c-40.932,4.39-70.555,41.13-66.165,82.062c0.642,5.982,1.992,11.714,3.928,17.143c16.001,1.731,33.815,3.658,33.937,3.668
					l12.65-12.414c6.353-6.989,16.664-8.029,21.281-4.02c4.493,3.902,4.256,14.188-1.892,20.217L232.74,239.158z"/>
			</g>
			
				<linearGradient id="SVGID_00000091733681739430695300000015417673391075109796_" gradientUnits="userSpaceOnUse" x1="236.2898" y1="190.3143" x2="342.7609" y2="190.3143">
				<stop  offset="0.4128" style="stop-color:#5292D3"/>
				<stop  offset="0.8654" style="stop-color:#27A8E0"/>
			</linearGradient>
			<path style="fill:url(#SVGID_00000091733681739430695300000015417673391075109796_);" d="M277.396,122.977
				c8.38-5.376,17.466-6.55,23.08-6.534c5.612,0.045,11.204,0.942,16.59,3.008c2.667,1.011,5.38,2.387,7.718,3.936
				c2.378,1.565,4.585,3.378,6.589,5.389c3.999,4.023,7.195,8.88,9.12,14.237c0.966,2.672,1.625,5.453,1.956,8.259
				c0.188,1.445,0.229,2.699,0.291,4.014c0.025,1.299,0.036,2.593-0.021,3.875c-0.19,5.132-1.012,10.127-2.347,14.977
				c-1.345,4.845-3.236,9.548-5.784,13.986c-0.668,1.101-1.347,2.218-2.005,3.166c-0.664,0.989-1.317,1.983-2.017,2.945
				c-1.366,1.946-2.79,3.846-4.258,5.705c-11.758,14.917-26.328,26.919-41.697,37.065c-14.889,9.833-31.678,19.324-47.606,27.023
				c-0.11,0.053-0.331,0.16-0.331,0.16s-0.276-0.376-0.383-0.549c0.039-0.023,0.15-0.09,0.188-0.113
				c15.675-9.297,31.156-19.168,45.305-30.417c14.166-11.24,27.069-24.039,36.718-38.805c1.208-1.84,2.366-3.708,3.463-5.607
				c0.566-0.938,1.083-1.905,1.612-2.863c0.563-0.982,0.979-1.869,1.422-2.763c1.67-3.665,2.864-7.63,3.589-11.676
				c0.72-4.045,1.001-8.176,0.772-12.177c-0.046-1.002-0.152-1.988-0.26-2.968c-0.14-0.958-0.268-1.984-0.474-2.789
				c-0.383-1.702-0.958-3.346-1.708-4.904c-1.494-3.122-3.75-5.861-6.426-8.051c-1.342-1.093-2.79-2.055-4.323-2.85
				c-1.574-0.808-3.025-1.361-4.68-1.817c-6.106-1.293-7.213-1.451-12.588-0.502c0,0-5.689-4.408-9.699-6.782
				C283.697,125.294,277.396,122.977,277.396,122.977z"/>
		</g>
		<text transform="matrix(0.9525 0 0 1 102.7258 370.7616)"><tspan x="0" y="0" style="fill:#F1A321; font-family:'Roboto-Medium'; font-size:62.6844px; letter-spacing:-2.1;">World </tspan><tspan x="161.076" y="0" style="fill:#5292D3; font-family:'Roboto-Medium'; font-size:62.6844px; letter-spacing:-2.1;">Travel</tspan></text>
	</g>
</g>
</svg>
